<svg width="44" height="44" viewBox="0 0 44 44" fill="none" xmlns="http://www.w3.org/2000/svg">
<path fill-rule="evenodd" clip-rule="evenodd" d="M21.8689 41.5204C32.5775 41.5204 41.2585 32.8394 41.2585 22.1309C41.2585 11.4223 32.5775 2.7413 21.8689 2.7413C11.1603 2.7413 2.47934 11.4223 2.47934 22.1309C2.47934 32.8394 11.1603 41.5204 21.8689 41.5204ZM21.8689 42.4285C33.079 42.4285 42.1665 33.3409 42.1665 22.1309C42.1665 10.9208 33.079 1.83325 21.8689 1.83325C10.6588 1.83325 1.57129 10.9208 1.57129 22.1309C1.57129 33.3409 10.6588 42.4285 21.8689 42.4285Z" fill="#1E1E1E"/>
<path d="M21.8845 23.5984C15.4632 23.5984 9.95706 27.5229 7.62598 33.108C14.0339 42.8038 29.4281 43.0787 36.143 33.108C33.8119 27.5229 28.3057 23.5984 21.8845 23.5984Z" fill="#1E1E1E"/>
<rect x="11.4648" y="13.6338" width="2.16901" height="5.26761" rx="1.08451" fill="#1E1E1E"/>
<path fill-rule="evenodd" clip-rule="evenodd" d="M21.8451 7.1268C17.3154 7.1268 13.6339 10.8672 13.6339 15.493C13.6339 15.6641 13.4951 15.8029 13.324 15.8029C13.1529 15.8029 13.0142 15.6641 13.0142 15.493C13.0142 10.5355 16.9627 6.50708 21.8451 6.50708C26.7276 6.50708 30.6761 10.5355 30.6761 15.493C30.6761 15.6641 30.5374 15.8029 30.3663 15.8029C30.1951 15.8029 30.0564 15.6641 30.0564 15.493C30.0564 10.8672 26.3749 7.1268 21.8451 7.1268Z" fill="#1E1E1E"/>
<path fill-rule="evenodd" clip-rule="evenodd" d="M30.8024 15.0159C30.9735 15.0159 31.1122 15.1546 31.1122 15.3257C31.1122 18.1962 29.7871 20.7571 27.7169 22.4279C27.5837 22.5354 27.3886 22.5146 27.2812 22.3814C27.1737 22.2483 27.1945 22.0532 27.3277 21.9457C29.2582 20.3875 30.4925 18.0011 30.4925 15.3257C30.4925 15.1546 30.6312 15.0159 30.8024 15.0159Z" fill="#1E1E1E"/>
<rect x="30.0562" y="13.6338" width="2.47887" height="5.26761" rx="1.23944" fill="#1E1E1E"/>
<rect x="26.9536" y="21.0872" width="1.64937" height="1.64937" rx="0.824685" fill="#1E1E1E"/>
<circle cx="22" cy="15.4929" r="6.8169" fill="#1E1E1E"/>
</svg>
