<svg width="44" height="44" viewBox="0 0 44 44" fill="none" xmlns="http://www.w3.org/2000/svg">
<circle cx="22.115" cy="12.6472" r="7.29859" fill="#1E1E1E"/>
<path d="M22.1595 21.4673C15.4856 21.4673 9.76268 25.5462 7.33984 31.3512C12.4578 41.9389 30.8377 42.7845 36.9792 31.3512C34.5564 25.5462 28.8335 21.4673 22.1595 21.4673Z" fill="#1E1E1E"/>
<path fill-rule="evenodd" clip-rule="evenodd" d="M22.1149 40.9055C32.4927 40.9055 40.9055 32.4927 40.9055 22.1149C40.9055 11.7372 32.4927 3.32434 22.1149 3.32434C11.7372 3.32434 3.32434 11.7372 3.32434 22.1149C3.32434 32.4927 11.7372 40.9055 22.1149 40.9055ZM22.1149 41.7855C32.9787 41.7855 41.7855 32.9787 41.7855 22.1149C41.7855 11.2512 32.9787 2.44434 22.1149 2.44434C11.2512 2.44434 2.44434 11.2512 2.44434 22.1149C2.44434 32.9787 11.2512 41.7855 22.1149 41.7855Z" fill="#1E1E1E"/>
<path d="M15.8889 34.6823C15.8889 38.3114 12.9469 41.2534 9.31776 41.2534C5.6886 41.2534 2.74658 38.3114 2.74658 34.6823C2.74658 31.0531 5.6886 28.1111 9.31776 28.1111C12.9469 28.1111 15.8889 31.0531 15.8889 34.6823Z" fill="#36A635"/>
<path fill-rule="evenodd" clip-rule="evenodd" d="M9.31776 40.3773C12.463 40.3773 15.0128 37.8275 15.0128 34.6823C15.0128 31.537 12.463 28.9872 9.31776 28.9872C6.17249 28.9872 3.62274 31.537 3.62274 34.6823C3.62274 37.8275 6.17249 40.3773 9.31776 40.3773ZM9.31776 41.2534C12.9469 41.2534 15.8889 38.3114 15.8889 34.6823C15.8889 31.0531 12.9469 28.1111 9.31776 28.1111C5.6886 28.1111 2.74658 31.0531 2.74658 34.6823C2.74658 38.3114 5.6886 41.2534 9.31776 41.2534Z" fill="white"/>
</svg>
